<svg fill="#40C057" xmlns="http://www.w3.org/2000/svg"  viewBox="0 0 50 50" width="50px" height="50px"><path d="M 25 8 C 15.611 8 8 15.611 8 25 C 8 34.389 15.611 42 25 42 C 34.389 42 42 34.389 42 25 C 42 15.611 34.389 8 25 8 z M 25 9 C 33.837 9 41 16.163 41 25 C 41 33.837 33.837 41 25 41 C 16.163 41 9 33.837 9 25 C 9 16.163 16.163 9 25 9 z M 32.587891 17.339844 C 32.396453 17.305906 32.191375 17.386094 32.078125 17.558594 L 23.150391 31.339844 L 17.873047 25.34375 C 17.691047 25.13675 17.376922 25.116828 17.169922 25.298828 C 16.961922 25.481828 16.940047 25.796906 17.123047 26.003906 L 22.837891 32.496094 C 22.932891 32.604094 23.068891 32.667969 23.212891 32.667969 C 23.224891 32.667969 23.235047 32.667016 23.248047 32.666016 C 23.403047 32.654016 23.547812 32.570453 23.632812 32.439453 L 32.919922 18.103516 C 33.069922 17.871516 33.003484 17.562109 32.771484 17.412109 C 32.714234 17.374609 32.651703 17.351156 32.587891 17.339844 z"/></svg>